<?xml version="1.0" encoding="utf-8"?>
<!-- Generator: Adobe Illustrator 24.3.0, SVG Export Plug-In . SVG Version: 6.00 Build 0)  -->
<svg version="1.1" id="Calque_1" xmlns="http://www.w3.org/2000/svg" xmlns:xlink="http://www.w3.org/1999/xlink" x="0px" y="0px"
	 viewBox="0 0 409 304" style="enable-background:new 0 0 409 304;" xml:space="preserve">
<style type="text/css">
	.st0{enable-background:new    ;}
	.st1{fill:#FFFFFF;stroke:#009ED0;stroke-miterlimit:10;}
</style>
<g class="st0">
	<path class="st1" d="M19.5,50.2c-0.1,1.2-0.8,5.4-1.9,12.6c-0.6,3.4-0.9,6.3-1,8.6c-0.1,1.5-0.3,3.2-0.4,5.1
		c-0.8,7.7-1.1,13-1.1,15.8c0,4.3,0.1,8.4,0.5,12.5c0.2,2.4-0.1,4.1-0.8,5.2c-0.7,1-1.4,1.6-2.1,1.6c-1,0-1.7-0.9-2.1-2.7
		c-0.4-1.8-0.6-4.8-0.6-8.9c0-4.3,0.3-10.1,1.1-17.6c0.3-2.8,0.4-4.5,0.4-5.1c0.1-1,0.1-2,0.2-3.2c0.1-1,0.1-2.1,0.2-3.2
		c0.1-2.8,0.4-6.5,1-11c0.4-3.4,0.7-6.4,0.9-9c0.1-1.8,0.3-3.1,0.4-3.7c0.1-0.6,0.6-1.4,1.3-2c0.7-0.8,1.2-1.1,1.6-1.1
		c0.8,0,1.4,0.6,1.7,1.9C19.4,47.1,19.5,48.6,19.5,50.2z"/>
	<path class="st1" d="M45.1,75.3c-1,0-2,1-3.1,3.1c-1.1,2-2.8,6.6-5.2,13.8c-3,9.6-5.1,15.1-6,16.3c-0.9,1.4-1.7,2-2.2,2
		c-2.1,0-3.3-1.7-3.3-5.2c0-1.4,0.1-3.5,0.4-6.1c1-9.1,1.5-18.7,1.5-28.9c0-1.1,0.3-2.4,0.9-3.8c0.6-1.4,1.2-2.1,1.7-2.1
		c1,0,1.7,0.5,2.1,1.4c0.4,0.9,0.6,2.9,0.6,5.9c0,3.1-0.6,9.3-1.7,18.8c-0.3,3.2-0.6,5.1-0.6,6c0,0.5,0.1,0.8,0.2,0.8
		c0.3,0,1.5-3.6,3.8-10.8c2.3-7.3,4.3-12.5,6-15.5c1.7-3,3.7-4.5,5.8-4.5c1.7,0,3,1.3,4,3.7c1,2.5,1.8,7,2.3,13.5
		c0.5,7.5,1,12.1,1.4,13.9c0.4,1.8,1,2.7,2,2.7c0.6,0,1.3-0.3,2.1-1c0.1-0.1,0.3-0.2,0.3-0.2c0.8,0,1.2,0.8,1.2,2.3
		c0,1.4-0.6,2.7-1.7,4.3s-2.4,2.2-4,2.2c-1.6,0-2.8-1-3.6-3.1c-0.8-2-1.5-7.5-2-16.3C47.9,79.8,46.8,75.3,45.1,75.3z"/>
	<path class="st1" d="M75.1,64.5c1.9-0.3,3.7-0.5,5.3-0.9s3-0.4,4.2-0.4c1.4,0,2.3,0.2,2.6,0.6c0.3,0.4,0.6,1.2,0.6,2.2
		c0,2.5-1,3.7-3.1,4c-2.7,0.3-5.1,0.7-7.3,1.1c-2.2,0.5-3.5,0.9-3.6,1.2c-0.2,0.3-0.8,3.9-1.7,10.7c-1,6.9-1.4,11.3-1.4,13.4
		c0,3.3,0.3,5.5,0.8,6.6c0.6,1.1,1.3,1.6,2.4,1.6c1.6,0,3.8-2,6.6-5.9c1.1-1.6,1.9-2.4,2.5-2.4c0.8,0,1.2,0.7,1.2,2
		c0,2.2-1.2,5-3.8,8.4c-2.6,3.5-5.2,5.2-7.8,5.2c-4.4,0-6.7-4.3-6.7-12.9c0-3.1,0.5-7.9,1.4-14.5c0.9-6.5,1.4-10.4,1.4-11.7
		c0-0.4-0.2-0.7-0.7-0.7l-2.8,0.4c-2.4,0-3.5-1.5-3.5-4.6c0-1.8,0.6-2.6,1.7-2.6h5.7c0.4,0,0.7-0.3,1-0.9c0.3-0.6,0.8-2.5,1.3-5.8
		c0.6-3.2,1.1-6.5,1.5-9.7c0.4-3.2,1.3-4.8,2.6-4.8c0.8,0,1.4,0.4,1.9,1.4c0.5,0.9,0.7,1.8,0.7,2.6c0,0.4-0.3,2.6-1,6.5L75.1,64.5z"
		/>
	<path class="st1" d="M114.1,94.8c0,3.1-1.7,6.8-5,11.2c-3.3,4.3-6.8,6.6-10.3,6.6c-3,0-5.3-1.4-6.9-4.3c-1.6-2.9-2.4-6.9-2.4-12
		c0-8.6,1.8-16.9,5.3-24.6c3.5-7.7,7.4-11.7,11.6-11.7c1.4,0,2.5,0.8,3.4,2.2c0.9,1.4,1.3,3.2,1.3,5.4c0,4.7-1.4,9.1-4.2,13.4
		s-6.5,8.4-11.2,12.5c-1,0.9-1.5,1.9-1.5,3.2c0,2.5,0.4,4.5,1.3,6c0.9,1.5,2.2,2.3,4,2.3c4,0,8-3.6,12.1-10.7c0.6-1,1-1.5,1.4-1.5
		C113.7,92.5,114.1,93.3,114.1,94.8z M94.8,87.8c7.8-7.6,11.7-13.7,11.7-18.3c0-1.8-0.5-2.7-1.5-2.7c-1.7,0-3.6,2-5.8,6.1
		C97.2,76.9,95.7,81.9,94.8,87.8z"/>
</g>
<g class="st0">
	<path class="st1" d="M131.8,89.1c0.2-0.5,0.4-1.3,0.7-2.4c1.2-4.9,2.3-8.8,3.4-11.5c1-2.7,2.1-5.4,3.4-8c1.2-2.6,2.3-4.4,3.4-5.8
		c1-1.3,1.9-2.2,2.8-2.7c0.8-0.5,1.6-0.8,2.4-0.8c1.5,0,2.8,0.8,3.8,2.5c1,1.7,1.5,3.5,1.5,5.8c0,1-0.2,1.9-0.5,2.7
		c-0.3,0.8-0.9,1.2-1.6,1.2c-0.7,0-1.4-0.6-2.1-1.8c-0.7-1.2-1.3-1.8-2-1.8c-1.9,0-4.4,4-7.7,11.9s-5.3,16.7-6,26.2
		c-0.2,2.5-0.5,4.1-1,4.9c-0.5,0.8-1.2,1.2-2.1,1.2c-0.9,0-1.5-1.2-1.9-3.5c-0.4-2.3-0.6-6.1-0.6-11.6c0-1.5,0.1-4.7,0.1-9.8
		c0.1-5.9,0.3-10.7,0.7-14.4c0.1-0.6,0.1-2,0.3-4.2c0.1-2.4,0.3-4.1,0.5-5.1c0.2-1,0.6-1.9,1.1-2.7c0.6-0.8,1.2-1.2,1.9-1.2
		c0.7,0,1.1,0.4,1.5,1.1s0.5,1.5,0.5,2.4c0,1.2-0.2,2.9-0.5,5.1c-0.4,2.5-0.7,4.2-0.7,5.1c-0.1,1.1-0.1,2.2-0.3,3.4
		c-0.2,1.3-0.3,4.9-0.5,10.6v1.8L131.8,89.1L131.8,89.1z"/>
</g>
<g class="st0">
	<path class="st1" d="M165.7,100.5c0,2.5,0.2,5.3,0.6,8.4c0.1,0.6,0.2,1.1,0.2,1.5c0,0.6-0.3,1.4-1,2.3c-0.7,0.9-1.4,1.4-2.2,1.4
		c-2,0-3.1-3-3.1-8.8c0-6,0.8-15.5,2.4-28.5c0.5-4.5,0.8-7.4,0.8-8.4c0-2,0.2-3.8,0.7-5.3c0.5-1.5,1.2-2.2,2-2.2
		c1.1,0,1.9,0.4,2.5,1.2c0.6,0.8,0.9,1.7,0.9,2.7s-0.2,2.3-0.5,3.9c-1.6,8.7-2.5,14.8-2.9,18.6C165.8,91,165.7,95.4,165.7,100.5z
		 M169.8,45.8c-0.5,0-0.8-0.7-1-2.2c-0.1-0.5-0.2-0.9-0.3-1.5c-0.5-2.1-0.9-4-0.9-5.5c0-1.3,0.5-2.7,1.5-4c1-1.4,2.1-2,3.3-2
		c0.6,0,1.3,0.4,2,1.1c0.8,0.7,1.1,1.5,1.1,2.1c0,1.1-0.2,3-0.8,5.5c-0.5,2.6-1.3,4.3-2.4,5.3C171.3,45.3,170.4,45.8,169.8,45.8z"/>
	<path class="st1" d="M201.9,72.6c-2,0.1-6.1,9-12.5,27c-2.1,6.1-3.4,9.3-3.8,9.9c-0.4,0.6-1,1-2,1.5s-1.7,0.6-2.4,0.6
		c-1.4,0-2.1-4.2-2.1-12.8c0-4.8,0.6-13.5,2-26.1c0.5-5.1,0.8-8.8,0.8-11c0-2.1,0.6-3.2,1.9-3.2c2.4,0,3.5,2.6,3.5,7.8
		c0,2.5-0.4,7.3-1.2,14.4c-0.9,8.2-1.3,13.1-1.4,15c1.3-1.9,3.2-6.3,5.7-12.9c3.5-9,6.2-14.9,7.8-17.3s3.5-3.7,5.2-3.7
		c1.3,0,2.4,1.4,3.2,4.2c0.8,2.9,1.3,9.6,1.5,20.4c0.1,2.7,0.2,4.7,0.5,6c0.2,1.3,0.5,1.9,0.6,1.9c1,0,3.1-5.3,6.4-15.7
		c1.7-5.5,3.5-9.7,5.1-12.6c1.6-2.9,3.5-4.3,5.5-4.3c1.7,0,2.9,1.4,3.7,4.1c0.8,2.8,1.3,6.7,1.6,12.2s0.8,10.4,1.5,15
		c0.6,4.5,1.9,7.4,3.6,8.7c1.2,0.9,1.8,1.9,1.8,3s-0.5,2.3-1.5,3.5c-1,1.2-1.9,1.8-2.7,1.8c-1.6,0-3.1-1.6-4.5-4.8
		c-1.3-3.2-2.3-10.2-3-20.8c-0.3-4.2-0.5-7.3-0.9-9.1c-0.2-1.8-0.7-2.7-1.3-2.7c-0.9,0-1.9,1.3-3.1,4c-1.2,2.6-3.1,7.9-5.8,16
		c-2.1,6.3-3.7,10.4-4.7,12.5c-1.1,2.1-2.1,3.1-3.1,3.1c-0.9,0-1.7-0.6-2.4-1.7c-0.7-1.1-1.2-2.5-1.3-4.1c-0.2-1.6-0.4-5.4-0.6-11.7
		C203.3,80.3,202.8,74.3,201.9,72.6z"/>
</g>
<g class="st0">
	<path class="st1" d="M279.4,92.5c-0.8,3.3-1.5,7.9-2.3,13.8l-0.7,5.1c-0.1,0.7-0.4,1.4-0.9,2.2c-0.5,0.7-0.9,1.1-1.4,1.1
		c-0.5,0-1.1-0.3-1.7-0.9c-0.7-0.6-1-1-1-1.4c0-1,0.2-2.4,0.6-4.2c3-13.4,4.5-25.2,4.5-35.4v-2.3c-0.1-2,0.3-3.4,0.9-4.3
		c0.7-0.9,1.4-1.3,2.3-1.3c0.4,0,0.7,0.4,1.1,1c0.4,0.7,0.6,1.6,0.6,2.9c0,1.7-0.2,3.9-0.5,6.4c-0.4,3.2-0.7,5-0.7,5.4
		c2.5-4.7,5-8.4,7.8-11.1c2.7-2.7,5.3-4,7.6-4c1.7,0,3.1,0.7,4.2,2.1c1.1,1.4,1.7,3.1,1.7,5.1c0,6-2,11.3-6.2,16.2
		c-4.1,4.8-8.1,7.2-11.9,7.2c-1,0-1.7-0.3-2.3-0.8C280.6,94.8,280,93.9,279.4,92.5z M294.6,70.5c-2.3,0-5.2,2.4-8.6,7.2
		c-3.4,4.8-5.1,8.5-5.1,11.2c0,0.7,0.3,1.3,1,1.9c0.7,0.6,1.5,0.9,2.5,0.9c2.3,0,5-1.9,8.1-5.7c3-3.8,4.6-7.6,4.6-11.3
		c0-1.3-0.2-2.4-0.7-3.1C296,70.9,295.3,70.5,294.6,70.5z"/>
	<path class="st1" d="M314.3,97c-2.2,0-4.1-0.9-5.5-2.8c-1.5-1.9-2.2-4.2-2.2-7c0-4.7,1.4-9.3,4.2-13.9c2.8-4.6,6.2-6.8,10.2-6.8
		c2.6,0,4.7,1.1,6.4,3.3c1.6,2.3,2.5,4.9,2.5,8c0,4.7-1.7,9.1-5,13.1C321.4,94.9,317.9,97,314.3,97z M310.9,86.4
		c0,1.8,0.4,3.3,1,4.5c0.7,1.2,1.6,1.7,2.8,1.7c2.5,0,4.9-1.5,7.3-4.5c2.5-3,3.7-6.3,3.7-9.9c0-2.3-0.5-4.1-1.4-5.4
		c-0.9-1.4-2.2-2.1-3.8-2.1c-2.6,0-4.9,1.8-6.8,5.4C311.9,79.8,310.9,83.2,310.9,86.4z"/>
	<path class="st1" d="M355.1,77.6c-0.4,0-1.5,2.2-3.3,6.4c-1.4,3.5-2.9,6.6-4.4,9.3c-1.5,2.7-2.6,4.1-3.3,4.1c-2,0-3.9-3.3-5.7-10.1
		c-1.7-6.7-2.6-12.1-2.6-16.2c0-1.3,0.3-2.4,0.9-3.3c0.6-0.9,1.3-1.3,2.1-1.4c0.1,0,0.3,0,0.6,0c0.3,0.1,0.7,0.3,1.1,0.9
		c0.4,0.6,0.6,1.1,0.6,1.7V69c0,0.2-0.1,1.1-0.2,2.7c-0.1,1.2-0.2,2.6-0.2,4.4c0,2.7,0.5,5.7,1.4,9c0.9,3.3,1.7,4.9,2.3,4.9
		c0.4,0,2-2.8,4.6-8.3c1.6-3.5,2.8-5.9,3.5-7.2l0.8-1.6c1.1-2.4,2.2-4.1,3.2-5c1.4,0.2,2.1,1,2.1,2.4c0,0.5-0.1,0.8-0.1,1.1
		s-0.1,0.7-0.1,1.1c0,3.4,0.8,6.9,2.3,10.6c1.5,3.7,2.7,5.5,3.4,5.5c0.5,0,1.3-2,2.3-5.8c1.4-5.2,2.8-9.2,4-11.8s2.1-4.2,2.7-4.7
		c0.6-0.5,1.2-0.7,2-0.7c0.4,0,0.7,0.2,1,0.6c0.3,0.4,0.4,0.8,0.4,1.3c0,0.7-0.1,1.1-0.2,1.4c-2,3-4,7.6-5.8,13.9
		c-1.6,5.4-2.6,8.8-3.3,10.2c-0.6,1.4-1.1,2.1-1.5,2.1c-2,0-3.6-0.8-4.9-2.4c-1.2-1.6-3-5.9-5-12.8
		C355.5,78.9,355.2,78.2,355.1,77.6z"/>
	<path class="st1" d="M400.9,86.4c0,1.8-1.5,4.1-4.4,6.7c-3,2.6-6,4-9.2,4c-2.6,0-4.7-0.9-6.1-2.6c-1.4-1.7-2.2-4.2-2.2-7.2
		c0-5.2,1.6-10.2,4.7-14.8c3.1-4.7,6.6-7,10.3-7c1.2,0,2.2,0.5,3,1.3c0.8,0.9,1.2,2,1.2,3.2c0,2.8-1.2,5.5-3.7,8.1
		c-2.5,2.6-5.8,5.1-9.9,7.5c-0.9,0.5-1.3,1.1-1.3,1.9c0,1.5,0.4,2.7,1.2,3.6c0.8,0.9,2,1.4,3.5,1.4c3.5,0,7.1-2.2,10.8-6.5
		c0.6-0.6,0.9-0.9,1.2-0.9C400.7,85,400.9,85.5,400.9,86.4z M383.9,82.1c7-4.6,10.4-8.3,10.4-11c0-1.1-0.4-1.6-1.4-1.6
		c-1.5,0-3.2,1.2-5.1,3.7C386,75.6,384.6,78.6,383.9,82.1z"/>
	<path class="st1" d="M411,84.8c0.2-0.3,0.4-0.8,0.6-1.4c1.1-2.8,2.2-5.1,3.1-6.7c0.9-1.6,2-3.1,3.1-4.6c1.1-1.5,2.2-2.6,3.1-3.3
		s1.8-1.3,2.5-1.6s1.5-0.5,2.2-0.5c1.4,0,2.6,0.5,3.5,1.4c0.9,1,1.4,2.1,1.4,3.3c0,0.6-0.2,1.1-0.5,1.5c-0.3,0.5-0.8,0.7-1.5,0.7
		s-1.3-0.4-1.9-1c-0.6-0.7-1.2-1-1.8-1c-1.7,0-4.1,2.3-7.1,6.9c-3,4.6-4.9,9.6-5.5,15.1c-0.2,1.4-0.5,2.4-0.9,2.8
		c-0.4,0.5-1.1,0.7-2,0.7c-0.8,0-1.4-0.7-1.7-2s-0.6-3.5-0.6-6.7c0-0.9,0.1-2.7,0.1-5.6c0.1-3.4,0.3-6.2,0.6-8.3
		c0.1-0.4,0.1-1.2,0.2-2.4c0.1-1.4,0.2-2.4,0.4-2.9c0.2-0.6,0.6-1.1,1-1.5c0.5-0.5,1.1-0.7,1.7-0.7c0.6,0,1,0.2,1.4,0.6
		s0.4,0.9,0.4,1.4c0,0.7-0.2,1.7-0.5,3c-0.4,1.4-0.6,2.4-0.7,3c-0.1,0.6-0.1,1.3-0.2,2c-0.2,0.8-0.3,2.8-0.5,6.2v1L411,84.8
		L411,84.8z"/>
</g>
</svg>
