<?xml version="1.0" encoding="utf-8"?>
<!-- Generator: Adobe Illustrator 24.3.0, SVG Export Plug-In . SVG Version: 6.00 Build 0)  -->
<svg version="1.1" id="Calque_1" xmlns="http://www.w3.org/2000/svg" xmlns:xlink="http://www.w3.org/1999/xlink" x="0px" y="0px"
	 viewBox="0 0 111.2 30.6" style="enable-background:new 0 0 111.2 30.6;" xml:space="preserve">
<style type="text/css">
	.st0{enable-background:new    ;}
	.st1{fill:#FFFFFF;}
</style>
<g id="Group_2" transform="translate(-372.804 -44.291)">
	<g class="st0">
		<g class="st0">
			<path class="st1" d="M393.5,48.1c-0.1,0.2-0.2,0.3-0.3,0.3c0,0-0.2-0.1-0.4-0.2c-0.2-0.1-0.4-0.2-0.6-0.2c-0.6,0-1.2,0.1-1.9,0.2
				c-0.7,0.1-1.3,0.3-1.8,0.5c0,1.1,0.1,2.9,0.1,5.4c0,2.5,0,5.1,0,7.8c0,1.1,0,2.4,0,3.8c0,1.4,0,2.3-0.1,2.6
				c0,0.3-0.1,0.5-0.2,0.6c-0.1,0.2-0.3,0.3-0.4,0.3c-0.1,0-0.2-0.1-0.2-0.2c-0.1-0.1-0.1-0.3-0.1-0.5l0-1.3
				c0.1-1.9,0.1-4.1,0.1-6.9c0-2,0-4.2,0-6.7s0-4.1-0.1-4.7c-2.3,0.5-3.9,1-4.7,1.5c-0.1,0.1-0.3,0.1-0.5,0.1
				c-0.2,0-0.4-0.2-0.6-0.5c-0.2-0.3-0.3-0.6-0.3-1c0-0.2,0-0.4,0.1-0.5s0.2-0.2,0.3-0.2c0.7-0.1,1.2-0.1,1.7-0.2
				c1-0.2,2.4-0.5,3.9-0.9c0-0.7,0-1.3,0-1.6c0-0.3,0.1-0.5,0.1-0.5c0.2,0,0.4,0.2,0.6,0.5c0,0.1,0.1,0.3,0.1,0.6c0,0.3,0,0.5,0,0.6
				c0.3,0,0.7-0.1,1.3-0.4c1.3-0.4,2.1-0.6,2.6-0.6c0.6,0,0.9,0.1,1.1,0.4c0.1,0.2,0.2,0.5,0.2,1C393.6,47.7,393.5,47.9,393.5,48.1z
				"/>
			<path class="st1" d="M404.2,58.8c0,0.2-0.1,0.3-0.2,0.4c-0.1,0.1-0.3,0.3-0.5,0.4c-0.3,0.1-0.4,0.2-0.5,0.2
				c0.1,0.9,0.1,1.3,0.1,1.3c0.1,0.6,0.2,1.4,0.3,2.5c0.2,2.4,0.4,4.5,0.7,6.1c0.1,0.5,0.1,0.9,0.1,1c0,0.2,0,0.4-0.1,0.6
				c-0.1,0.2-0.2,0.3-0.3,0.3c-0.1,0-0.2-0.1-0.3-0.4s-0.2-0.5-0.2-0.7c-0.1-0.8-0.2-1.7-0.3-2.7s-0.2-2.2-0.3-3.6
				c0-0.6-0.1-1.4-0.2-2.3c-0.1-0.9-0.2-1.5-0.2-1.8c-0.7,0.2-1.9,0.6-3.6,1.1l-1,0.4l-0.4,2.1l-0.5,2.9c-0.4,2.6-0.7,4.6-0.9,6
				c0,0.3-0.1,0.6-0.2,0.8c-0.1,0.2-0.2,0.3-0.4,0.3c-0.1,0-0.2-0.1-0.3-0.2s-0.1-0.3-0.1-0.6s0.1-0.8,0.2-1.7
				c0.1-0.8,0.2-1.4,0.2-1.5c0-0.2,0.1-0.8,0.3-1.6c0.2-0.9,0.3-2.1,0.6-3.4c0.2-1.3,0.4-2.2,0.5-2.6c-0.6,0.3-1,0.5-1.3,0.7
				c-0.4,0.2-0.7,0.4-0.8,0.4c-0.1,0-0.2-0.1-0.3-0.3c-0.1-0.2-0.1-0.4-0.1-0.7c0-0.3,0-0.5,0.1-0.6s0.2-0.2,0.4-0.3
				c0.4-0.2,0.9-0.4,1.4-0.6s0.8-0.4,1-0.4c0.1-0.7,0.2-1.3,0.3-1.8c0-0.3,0.1-0.7,0.2-1.2c0.1-0.5,0.2-1,0.3-1.7l0.3-1.8
				c0.4-3.2,0.7-5,0.8-5.5c0.1-0.3,0.1-0.6,0.2-0.8c0.1-0.2,0.1-0.3,0.2-0.3c0.2,0,0.4,0.1,0.6,0.2c0,0,0.1-0.1,0.1-0.3
				c0.1-0.2,0.1-0.3,0.2-0.3s0.1-0.1,0.3-0.1c0.2,0,0.5,0.5,0.7,1.5c0.3,1,0.5,2.1,0.8,3.5c0.2,0.8,0.3,2,0.6,3.5s0.4,2.6,0.5,3.1
				c0.2,0,0.3-0.1,0.4-0.2c0.1-0.1,0.2-0.1,0.2-0.2c0.1,0,0.1-0.1,0.2-0.3s0.1-0.2,0.2-0.3c0.1-0.1,0.1-0.1,0.2,0
				c0.2,0.1,0.2,0.4,0.2,0.9C404.2,58.4,404.2,58.6,404.2,58.8z M401.6,55.8c-0.2-1.4-0.4-2.5-0.5-3.3c-0.2-0.9-0.4-1.8-0.6-2.7
				c-0.3-0.9-0.5-1.5-0.6-1.8l-0.2,0.9c-0.2,0.9-0.4,1.7-0.5,2.5c-0.3,1.7-0.7,4.5-1.3,8.5l2.1-0.7l1.7-0.5l0.5-0.1
				C401.9,58.1,401.7,57.2,401.6,55.8z"/>
			<path class="st1" d="M414.1,67.5c-0.1,0.2-0.3,0.3-0.5,0.3l-3,0.5l-2.1,0.4l-1.1,0.2c-0.1,0-0.2-0.1-0.3-0.4
				c-0.1-0.2-0.1-0.5-0.1-0.7c0-0.2,0-0.3,0.1-0.4c0.1-0.1,0.1-0.1,0.2-0.2c0.1,0,0.1-0.1,0.1-0.1c0-1.3,0-4.3,0-9
				c0-3.5-0.1-6.2-0.2-8.1c-0.1-1.9-0.2-2.9-0.2-3.1c0-0.3,0.1-0.6,0.2-0.8c0.1-0.2,0.2-0.3,0.4-0.3c0.1,0,0.1,0.1,0.2,0.2
				s0.1,0.3,0.1,0.6c0.1,0.8,0.2,2.3,0.3,4.5c0.1,2.2,0.1,4.4,0.1,6.8c0,2,0,3.9,0,5.6c0,1.7,0,2.9,0,3.5c0.2,0,0.4-0.1,0.9-0.1
				c0.4-0.1,0.9-0.1,1.3-0.2c0.7-0.2,1.4-0.4,2.3-0.8c0.7-0.3,1.1-0.4,1.2-0.4c0.1,0,0.2,0.1,0.2,0.4s0.1,0.5,0.1,0.9
				C414.3,67,414.3,67.3,414.1,67.5z"/>
			<path class="st1" d="M424.7,47.3c-0.3,0.4-0.8,0.7-1.5,1.1c-0.7,0.4-1.2,0.7-1.7,0.9c-0.7,0.3-1.4,0.5-2,0.6
				c-0.7,0.2-1.1,0.2-1.3,0.3c0,1.4,0,2.8,0.1,4.3c0,1.5,0,2.5,0.1,3c0.5-0.1,1.1-0.3,2.1-0.7l0.7-0.2c0.7-0.3,1.3-0.7,1.7-1.4
				c0.2-0.3,0.4-0.5,0.5-0.5c0.1,0,0.1,0.1,0.2,0.3s0.1,0.4,0.1,0.6c0,0.4-0.2,0.9-0.7,1.4c-0.5,0.5-1,0.9-1.6,1.1
				c-0.5,0.2-1,0.4-1.6,0.6c-0.6,0.2-1,0.3-1.2,0.4c0.1,4.1,0.3,7.1,0.6,9.1c0.3,0.2,0.7,0.4,1,0.5c0.3,0.1,0.7,0.2,1.3,0.2
				c0.5,0,1-0.1,1.5-0.4c0.5-0.3,0.8-0.6,1.1-1c0.3-0.4,0.4-0.8,0.4-1.1c0-0.2,0-0.4-0.1-0.6s-0.1-0.4-0.1-0.6
				c0-0.1-0.1-0.2-0.1-0.3s-0.1-0.3-0.1-0.4c0-0.2,0.1-0.4,0.4-0.4c0.2,0,0.3,0.2,0.5,0.5c0.1,0.3,0.2,0.7,0.2,1.1
				c0,0.8-0.2,1.5-0.5,2.3s-0.8,1.3-1.4,1.8c-0.6,0.5-1.2,0.7-1.9,0.7c-0.7,0-1.3-0.1-1.8-0.2c-0.5-0.2-0.8-0.5-1-0.9
				c-0.3-0.6-0.5-1.8-0.6-3.4c-0.1-1.6-0.2-3.7-0.3-6.4c-0.2,0.1-0.5,0.2-0.7,0.3c-0.3,0.1-0.5,0.1-0.6,0.1s-0.3-0.1-0.3-0.3
				s-0.1-0.4-0.1-0.7c0-0.2,0-0.3,0-0.4s0.1-0.2,0.1-0.2c0.4-0.1,0.7-0.2,0.8-0.2l0.8-0.2c0-3.1-0.1-5.6-0.1-7.5c-0.2,0-0.3,0-0.4,0
				l-0.8,0c-0.1,0-0.2-0.1-0.2-0.2s-0.1-0.3-0.1-0.4c0-0.6,0.2-1,0.6-1.1c0.1,0,0.3-0.1,0.5-0.2s0.4-0.1,0.4-0.1
				c0.2-0.5,0.5-0.8,0.7-0.8c0,0,0.1,0.1,0.1,0.2c0,0.2,0,0.3,0,0.3c0.8-0.1,1.7-0.3,2.8-0.5c0.7-0.2,1.8-0.6,3.3-1.4l0.7-0.3
				c0.1,0,0.2,0.1,0.2,0.4C425,46.9,424.9,47.1,424.7,47.3z"/>
			<path class="st1" d="M434.9,69.6c-0.1,0-0.6-1.3-1.6-3.8c-1-2.6-1.8-4.7-2.5-6.6c-0.1-0.3-0.4-1.1-0.9-2.6
				c-0.7-2.2-1.2-3.5-1.4-4l0,2.8l0,2.7c0,1.7,0,3.5,0,5.5s0,3.5-0.1,4.7c0,0.3-0.1,0.5-0.2,0.8c-0.1,0.2-0.2,0.4-0.3,0.4
				c-0.1,0-0.2-0.1-0.3-0.2c-0.1-0.2-0.1-0.5-0.1-0.9c0-0.3,0-1.2,0.1-2.6c0.1-2.7,0.2-5,0.2-6.9c0-1.5,0-2.9,0-4.2
				c0-1.3,0-2.1,0-2.4l0-1v-0.1c0-0.3,0-0.5,0.1-0.6c0-0.2,0.1-0.2,0.3-0.2h0.1c0.1,0,0.4,0.5,0.8,1.4c0.4,0.9,0.9,2.2,1.4,3.8
				c0.1,0.3,0.3,0.7,0.4,1s0.2,0.6,0.3,0.9c0.7,1.7,1,2.7,1.1,2.8c1.7,4.3,2.6,6.8,2.7,7.4c0-0.2-0.1-0.6-0.1-1.3s-0.1-1.6-0.2-2.7
				s-0.1-2.3-0.1-3.5c0-2.1-0.1-4.9-0.3-8.4c-0.1-1.1-0.1-1.8-0.1-2.1c0-0.9,0.3-1.4,0.8-1.4c0.1,0,0.2,0.2,0.3,0.7s0.1,1.5,0.1,3.1
				c0,1.6,0,4.1,0,7.5c0,1.1,0,2.2,0.1,3.2c0,1,0.1,2,0.1,2.8c0.1,1.1,0.1,2,0.1,2.5l0,1.3C435.6,69.4,435.4,69.6,434.9,69.6z"/>
			<path class="st1" d="M449.4,48.1c-0.1,0.2-0.2,0.3-0.3,0.3c0,0-0.2-0.1-0.4-0.2s-0.4-0.2-0.6-0.2c-0.6,0-1.2,0.1-1.9,0.2
				s-1.3,0.3-1.8,0.5c0,1.1,0.1,2.9,0.1,5.4c0,2.5,0,5.1,0,7.8c0,1.1,0,2.4,0,3.8c0,1.4,0,2.3-0.1,2.6c0,0.3-0.1,0.5-0.2,0.6
				s-0.3,0.3-0.4,0.3c-0.1,0-0.2-0.1-0.2-0.2c-0.1-0.1-0.1-0.3-0.1-0.5l0-1.3c0.1-1.9,0.1-4.1,0.1-6.9c0-2,0-4.2,0-6.7
				s0-4.1-0.1-4.7c-2.3,0.5-3.9,1-4.7,1.5c-0.1,0.1-0.3,0.1-0.5,0.1c-0.2,0-0.4-0.2-0.6-0.5c-0.2-0.3-0.3-0.6-0.3-1
				c0-0.2,0-0.4,0.1-0.5s0.2-0.2,0.3-0.2c0.7-0.1,1.2-0.1,1.7-0.2c1-0.2,2.4-0.5,3.9-0.9c0-0.7,0-1.3,0-1.6c0-0.3,0.1-0.5,0.1-0.5
				c0.2,0,0.4,0.2,0.6,0.5c0,0.1,0.1,0.3,0.1,0.6c0,0.3,0,0.5,0,0.6c0.3,0,0.7-0.1,1.3-0.4c1.3-0.4,2.1-0.6,2.6-0.6
				c0.6,0,0.9,0.1,1.1,0.4c0.1,0.2,0.2,0.5,0.2,1C449.5,47.7,449.5,47.9,449.4,48.1z"/>
			<path class="st1" d="M465.8,69.7c-0.1,0.2-0.3,0.3-0.4,0.3c-0.2,0-0.4-0.5-0.6-1.5s-0.3-2-0.4-3.1c0-0.9-0.1-3-0.1-6.3
				c0-1.4,0-2.2-0.1-2.6c-0.8,4-1.7,7.5-2.8,10.5s-2,4.5-2.9,4.5c-0.5,0-0.9-0.6-1.2-1.7s-0.6-2.6-0.8-4.5c-0.2-1.9-0.3-4-0.3-6.2
				c0-1.8,0.1-3.9,0.2-6.2c0.1-2.3,0.2-4,0.4-5c0-0.3,0.1-0.5,0.2-0.7s0.2-0.3,0.3-0.3c0.3,0,0.4,0.2,0.4,0.7c0,0.1-0.1,0.9-0.3,2.6
				c-0.2,1.6-0.3,4.7-0.3,9.2c0,3,0.1,5.4,0.4,7.3c0.3,1.9,0.7,2.9,1.2,2.9c0.5,0,1.1-0.8,1.8-2.4c0.7-1.6,1.3-3.6,1.9-5.8
				c0.6-2.3,1.1-4.3,1.3-6c0.2-1.3,0.3-3.2,0.4-5.7c0-1,0.1-1.5,0.1-1.5c0.1-0.2,0.2-0.4,0.4-0.4c0.2,0,0.3,0.6,0.3,1.8
				c0,1.4,0,4.1,0.1,8s0.1,6.4,0.1,7.5c0,0.9,0.1,1.6,0.3,2.1s0.3,0.9,0.4,1.3c0.1,0.3,0.2,0.5,0.2,0.6
				C466,69.2,465.9,69.5,465.8,69.7z"/>
			<path class="st1" d="M474.7,55.7c-0.6,1-1.3,2-2.4,2.9c-0.4,0.3-0.7,0.6-1.1,0.9c-0.4,0.3-0.6,0.5-0.7,0.5
				c0.1,2.9,0.1,5.4,0.1,7.4c0,0.7,0,1.2,0.1,1.6c0.1,0.4,0.1,0.7,0.1,0.8c0,0.3-0.1,0.5-0.2,0.7s-0.3,0.3-0.4,0.3
				c-0.2,0-0.3-0.3-0.3-0.8c0,0,0-0.3,0-0.6s0-0.9,0-1.6c0-1.9,0-4.9-0.1-9.1c0-2.1-0.1-3.7-0.1-4.6c0-0.8,0-1.5,0-2.1
				c0-0.7,0-1.1,0-1.3c-0.7,0.4-1.4,0.8-1.9,1.3c-0.2,0.2-0.4,0.4-0.7,0.8c-0.1,0.2-0.3,0.3-0.4,0.5c-0.1,0.1-0.2,0.2-0.3,0.2
				c-0.1,0-0.2-0.1-0.2-0.3s-0.1-0.4-0.1-0.6c0-0.3,0.2-0.7,0.7-1.2c0.4-0.5,1-0.9,1.6-1.3s1.2-0.8,1.8-1c0.6-0.2,1.3-0.4,2.1-0.4
				c1.1,0,1.9,0.3,2.5,0.8c0.6,0.6,0.9,1.4,0.9,2.5C475.5,53.5,475.3,54.7,474.7,55.7z M474,50.7c-0.5-0.3-1.1-0.5-1.9-0.5
				c-0.5,0-1.1,0.1-1.7,0.2c0,0.2,0,0.6,0,1.3c0,0.7,0,1.3,0,2l0,2.6c0,0.6,0,1.3,0,2.2c0.2,0,0.8-0.4,1.6-1.1
				c0.8-0.7,1.4-1.5,2-2.3c0.5-0.8,0.8-1.7,0.8-2.7C474.7,51.6,474.5,51,474,50.7z"/>
		</g>
		<g class="st0">
			<path class="st1" d="M393.5,48.1c-0.1,0.2-0.2,0.3-0.3,0.3c0,0-0.2-0.1-0.4-0.2c-0.2-0.1-0.4-0.2-0.6-0.2c-0.6,0-1.2,0.1-1.9,0.2
				c-0.7,0.1-1.3,0.3-1.8,0.5c0,1.1,0.1,2.9,0.1,5.4c0,2.5,0,5.1,0,7.8c0,1.1,0,2.4,0,3.8c0,1.4,0,2.3-0.1,2.6
				c0,0.3-0.1,0.5-0.2,0.6c-0.1,0.2-0.3,0.3-0.4,0.3c-0.1,0-0.2-0.1-0.2-0.2c-0.1-0.1-0.1-0.3-0.1-0.5l0-1.3
				c0.1-1.9,0.1-4.1,0.1-6.9c0-2,0-4.2,0-6.7s0-4.1-0.1-4.7c-2.3,0.5-3.9,1-4.7,1.5c-0.1,0.1-0.3,0.1-0.5,0.1
				c-0.2,0-0.4-0.2-0.6-0.5c-0.2-0.3-0.3-0.6-0.3-1c0-0.2,0-0.4,0.1-0.5s0.2-0.2,0.3-0.2c0.7-0.1,1.2-0.1,1.7-0.2
				c1-0.2,2.4-0.5,3.9-0.9c0-0.7,0-1.3,0-1.6c0-0.3,0.1-0.5,0.1-0.5c0.2,0,0.4,0.2,0.6,0.5c0,0.1,0.1,0.3,0.1,0.6c0,0.3,0,0.5,0,0.6
				c0.3,0,0.7-0.1,1.3-0.4c1.3-0.4,2.1-0.6,2.6-0.6c0.6,0,0.9,0.1,1.1,0.4c0.1,0.2,0.2,0.5,0.2,1C393.6,47.7,393.5,47.9,393.5,48.1z
				"/>
			<path class="st1" d="M404.2,58.8c0,0.2-0.1,0.3-0.2,0.4c-0.1,0.1-0.3,0.3-0.5,0.4c-0.3,0.1-0.4,0.2-0.5,0.2
				c0.1,0.9,0.1,1.3,0.1,1.3c0.1,0.6,0.2,1.4,0.3,2.5c0.2,2.4,0.4,4.5,0.7,6.1c0.1,0.5,0.1,0.9,0.1,1c0,0.2,0,0.4-0.1,0.6
				c-0.1,0.2-0.2,0.3-0.3,0.3c-0.1,0-0.2-0.1-0.3-0.4s-0.2-0.5-0.2-0.7c-0.1-0.8-0.2-1.7-0.3-2.7s-0.2-2.2-0.3-3.6
				c0-0.6-0.1-1.4-0.2-2.3c-0.1-0.9-0.2-1.5-0.2-1.8c-0.7,0.2-1.9,0.6-3.6,1.1l-1,0.4l-0.4,2.1l-0.5,2.9c-0.4,2.6-0.7,4.6-0.9,6
				c0,0.3-0.1,0.6-0.2,0.8c-0.1,0.2-0.2,0.3-0.4,0.3c-0.1,0-0.2-0.1-0.3-0.2s-0.1-0.3-0.1-0.6s0.1-0.8,0.2-1.7
				c0.1-0.8,0.2-1.4,0.2-1.5c0-0.2,0.1-0.8,0.3-1.6c0.2-0.9,0.3-2.1,0.6-3.4c0.2-1.3,0.4-2.2,0.5-2.6c-0.6,0.3-1,0.5-1.3,0.7
				c-0.4,0.2-0.7,0.4-0.8,0.4c-0.1,0-0.2-0.1-0.3-0.3c-0.1-0.2-0.1-0.4-0.1-0.7c0-0.3,0-0.5,0.1-0.6s0.2-0.2,0.4-0.3
				c0.4-0.2,0.9-0.4,1.4-0.6s0.8-0.4,1-0.4c0.1-0.7,0.2-1.3,0.3-1.8c0-0.3,0.1-0.7,0.2-1.2c0.1-0.5,0.2-1,0.3-1.7l0.3-1.8
				c0.4-3.2,0.7-5,0.8-5.5c0.1-0.3,0.1-0.6,0.2-0.8c0.1-0.2,0.1-0.3,0.2-0.3c0.2,0,0.4,0.1,0.6,0.2c0,0,0.1-0.1,0.1-0.3
				c0.1-0.2,0.1-0.3,0.2-0.3s0.1-0.1,0.3-0.1c0.2,0,0.5,0.5,0.7,1.5c0.3,1,0.5,2.1,0.8,3.5c0.2,0.8,0.3,2,0.6,3.5s0.4,2.6,0.5,3.1
				c0.2,0,0.3-0.1,0.4-0.2c0.1-0.1,0.2-0.1,0.2-0.2c0.1,0,0.1-0.1,0.2-0.3s0.1-0.2,0.2-0.3c0.1-0.1,0.1-0.1,0.2,0
				c0.2,0.1,0.2,0.4,0.2,0.9C404.2,58.4,404.2,58.6,404.2,58.8z M401.6,55.8c-0.2-1.4-0.4-2.5-0.5-3.3c-0.2-0.9-0.4-1.8-0.6-2.7
				c-0.3-0.9-0.5-1.5-0.6-1.8l-0.2,0.9c-0.2,0.9-0.4,1.7-0.5,2.5c-0.3,1.7-0.7,4.5-1.3,8.5l2.1-0.7l1.7-0.5l0.5-0.1
				C401.9,58.1,401.7,57.2,401.6,55.8z"/>
			<path class="st1" d="M414.1,67.5c-0.1,0.2-0.3,0.3-0.5,0.3l-3,0.5l-2.1,0.4l-1.1,0.2c-0.1,0-0.2-0.1-0.3-0.4
				c-0.1-0.2-0.1-0.5-0.1-0.7c0-0.2,0-0.3,0.1-0.4c0.1-0.1,0.1-0.1,0.2-0.2c0.1,0,0.1-0.1,0.1-0.1c0-1.3,0-4.3,0-9
				c0-3.5-0.1-6.2-0.2-8.1c-0.1-1.9-0.2-2.9-0.2-3.1c0-0.3,0.1-0.6,0.2-0.8c0.1-0.2,0.2-0.3,0.4-0.3c0.1,0,0.1,0.1,0.2,0.2
				s0.1,0.3,0.1,0.6c0.1,0.8,0.2,2.3,0.3,4.5c0.1,2.2,0.1,4.4,0.1,6.8c0,2,0,3.9,0,5.6c0,1.7,0,2.9,0,3.5c0.2,0,0.4-0.1,0.9-0.1
				c0.4-0.1,0.9-0.1,1.3-0.2c0.7-0.2,1.4-0.4,2.3-0.8c0.7-0.3,1.1-0.4,1.2-0.4c0.1,0,0.2,0.1,0.2,0.4s0.1,0.5,0.1,0.9
				C414.3,67,414.3,67.3,414.1,67.5z"/>
			<path class="st1" d="M424.7,47.3c-0.3,0.4-0.8,0.7-1.5,1.1c-0.7,0.4-1.2,0.7-1.7,0.9c-0.7,0.3-1.4,0.5-2,0.6
				c-0.7,0.2-1.1,0.2-1.3,0.3c0,1.4,0,2.8,0.1,4.3c0,1.5,0,2.5,0.1,3c0.5-0.1,1.1-0.3,2.1-0.7l0.7-0.2c0.7-0.3,1.3-0.7,1.7-1.4
				c0.2-0.3,0.4-0.5,0.5-0.5c0.1,0,0.1,0.1,0.2,0.3s0.1,0.4,0.1,0.6c0,0.4-0.2,0.9-0.7,1.4c-0.5,0.5-1,0.9-1.6,1.1
				c-0.5,0.2-1,0.4-1.6,0.6c-0.6,0.2-1,0.3-1.2,0.4c0.1,4.1,0.3,7.1,0.6,9.1c0.3,0.2,0.7,0.4,1,0.5c0.3,0.1,0.7,0.2,1.3,0.2
				c0.5,0,1-0.1,1.5-0.4c0.5-0.3,0.8-0.6,1.1-1c0.3-0.4,0.4-0.8,0.4-1.1c0-0.2,0-0.4-0.1-0.6s-0.1-0.4-0.1-0.6
				c0-0.1-0.1-0.2-0.1-0.3s-0.1-0.3-0.1-0.4c0-0.2,0.1-0.4,0.4-0.4c0.2,0,0.3,0.2,0.5,0.5c0.1,0.3,0.2,0.7,0.2,1.1
				c0,0.8-0.2,1.5-0.5,2.3s-0.8,1.3-1.4,1.8c-0.6,0.5-1.2,0.7-1.9,0.7c-0.7,0-1.3-0.1-1.8-0.2c-0.5-0.2-0.8-0.5-1-0.9
				c-0.3-0.6-0.5-1.8-0.6-3.4c-0.1-1.6-0.2-3.7-0.3-6.4c-0.2,0.1-0.5,0.2-0.7,0.3c-0.3,0.1-0.5,0.1-0.6,0.1s-0.3-0.1-0.3-0.3
				s-0.1-0.4-0.1-0.7c0-0.2,0-0.3,0-0.4s0.1-0.2,0.1-0.2c0.4-0.1,0.7-0.2,0.8-0.2l0.8-0.2c0-3.1-0.1-5.6-0.1-7.5c-0.2,0-0.3,0-0.4,0
				l-0.8,0c-0.1,0-0.2-0.1-0.2-0.2s-0.1-0.3-0.1-0.4c0-0.6,0.2-1,0.6-1.1c0.1,0,0.3-0.1,0.5-0.2s0.4-0.1,0.4-0.1
				c0.2-0.5,0.5-0.8,0.7-0.8c0,0,0.1,0.1,0.1,0.2c0,0.2,0,0.3,0,0.3c0.8-0.1,1.7-0.3,2.8-0.5c0.7-0.2,1.8-0.6,3.3-1.4l0.7-0.3
				c0.1,0,0.2,0.1,0.2,0.4C425,46.9,424.9,47.1,424.7,47.3z"/>
			<path class="st1" d="M434.9,69.6c-0.1,0-0.6-1.3-1.6-3.8c-1-2.6-1.8-4.7-2.5-6.6c-0.1-0.3-0.4-1.1-0.9-2.6
				c-0.7-2.2-1.2-3.5-1.4-4l0,2.8l0,2.7c0,1.7,0,3.5,0,5.5s0,3.5-0.1,4.7c0,0.3-0.1,0.5-0.2,0.8c-0.1,0.2-0.2,0.4-0.3,0.4
				c-0.1,0-0.2-0.1-0.3-0.2c-0.1-0.2-0.1-0.5-0.1-0.9c0-0.3,0-1.2,0.1-2.6c0.1-2.7,0.2-5,0.2-6.9c0-1.5,0-2.9,0-4.2
				c0-1.3,0-2.1,0-2.4l0-1v-0.1c0-0.3,0-0.5,0.1-0.6c0-0.2,0.1-0.2,0.3-0.2h0.1c0.1,0,0.4,0.5,0.8,1.4c0.4,0.9,0.9,2.2,1.4,3.8
				c0.1,0.3,0.3,0.7,0.4,1s0.2,0.6,0.3,0.9c0.7,1.7,1,2.7,1.1,2.8c1.7,4.3,2.6,6.8,2.7,7.4c0-0.2-0.1-0.6-0.1-1.3s-0.1-1.6-0.2-2.7
				s-0.1-2.3-0.1-3.5c0-2.1-0.1-4.9-0.3-8.4c-0.1-1.1-0.1-1.8-0.1-2.1c0-0.9,0.3-1.4,0.8-1.4c0.1,0,0.2,0.2,0.3,0.7s0.1,1.5,0.1,3.1
				c0,1.6,0,4.1,0,7.5c0,1.1,0,2.2,0.1,3.2c0,1,0.1,2,0.1,2.8c0.1,1.1,0.1,2,0.1,2.5l0,1.3C435.6,69.4,435.4,69.6,434.9,69.6z"/>
			<path class="st1" d="M449.4,48.1c-0.1,0.2-0.2,0.3-0.3,0.3c0,0-0.2-0.1-0.4-0.2s-0.4-0.2-0.6-0.2c-0.6,0-1.2,0.1-1.9,0.2
				s-1.3,0.3-1.8,0.5c0,1.1,0.1,2.9,0.1,5.4c0,2.5,0,5.1,0,7.8c0,1.1,0,2.4,0,3.8c0,1.4,0,2.3-0.1,2.6c0,0.3-0.1,0.5-0.2,0.6
				s-0.3,0.3-0.4,0.3c-0.1,0-0.2-0.1-0.2-0.2c-0.1-0.1-0.1-0.3-0.1-0.5l0-1.3c0.1-1.9,0.1-4.1,0.1-6.9c0-2,0-4.2,0-6.7
				s0-4.1-0.1-4.7c-2.3,0.5-3.9,1-4.7,1.5c-0.1,0.1-0.3,0.1-0.5,0.1c-0.2,0-0.4-0.2-0.6-0.5c-0.2-0.3-0.3-0.6-0.3-1
				c0-0.2,0-0.4,0.1-0.5s0.2-0.2,0.3-0.2c0.7-0.1,1.2-0.1,1.7-0.2c1-0.2,2.4-0.5,3.9-0.9c0-0.7,0-1.3,0-1.6c0-0.3,0.1-0.5,0.1-0.5
				c0.2,0,0.4,0.2,0.6,0.5c0,0.1,0.1,0.3,0.1,0.6c0,0.3,0,0.5,0,0.6c0.3,0,0.7-0.1,1.3-0.4c1.3-0.4,2.1-0.6,2.6-0.6
				c0.6,0,0.9,0.1,1.1,0.4c0.1,0.2,0.2,0.5,0.2,1C449.5,47.7,449.5,47.9,449.4,48.1z"/>
			<path class="st1" d="M465.8,69.7c-0.1,0.2-0.3,0.3-0.4,0.3c-0.2,0-0.4-0.5-0.6-1.5s-0.3-2-0.4-3.1c0-0.9-0.1-3-0.1-6.3
				c0-1.4,0-2.2-0.1-2.6c-0.8,4-1.7,7.5-2.8,10.5s-2,4.5-2.9,4.5c-0.5,0-0.9-0.6-1.2-1.7s-0.6-2.6-0.8-4.5c-0.2-1.9-0.3-4-0.3-6.2
				c0-1.8,0.1-3.9,0.2-6.2c0.1-2.3,0.2-4,0.4-5c0-0.3,0.1-0.5,0.2-0.7s0.2-0.3,0.3-0.3c0.3,0,0.4,0.2,0.4,0.7c0,0.1-0.1,0.9-0.3,2.6
				c-0.2,1.6-0.3,4.7-0.3,9.2c0,3,0.1,5.4,0.4,7.3c0.3,1.9,0.7,2.9,1.2,2.9c0.5,0,1.1-0.8,1.8-2.4c0.7-1.6,1.3-3.6,1.9-5.8
				c0.6-2.3,1.1-4.3,1.3-6c0.2-1.3,0.3-3.2,0.4-5.7c0-1,0.1-1.5,0.1-1.5c0.1-0.2,0.2-0.4,0.4-0.4c0.2,0,0.3,0.6,0.3,1.8
				c0,1.4,0,4.1,0.1,8s0.1,6.4,0.1,7.5c0,0.9,0.1,1.6,0.3,2.1s0.3,0.9,0.4,1.3c0.1,0.3,0.2,0.5,0.2,0.6
				C466,69.2,465.9,69.5,465.8,69.7z"/>
			<path class="st1" d="M474.7,55.7c-0.6,1-1.3,2-2.4,2.9c-0.4,0.3-0.7,0.6-1.1,0.9c-0.4,0.3-0.6,0.5-0.7,0.5
				c0.1,2.9,0.1,5.4,0.1,7.4c0,0.7,0,1.2,0.1,1.6c0.1,0.4,0.1,0.7,0.1,0.8c0,0.3-0.1,0.5-0.2,0.7s-0.3,0.3-0.4,0.3
				c-0.2,0-0.3-0.3-0.3-0.8c0,0,0-0.3,0-0.6s0-0.9,0-1.6c0-1.9,0-4.9-0.1-9.1c0-2.1-0.1-3.7-0.1-4.6c0-0.8,0-1.5,0-2.1
				c0-0.7,0-1.1,0-1.3c-0.7,0.4-1.4,0.8-1.9,1.3c-0.2,0.2-0.4,0.4-0.7,0.8c-0.1,0.2-0.3,0.3-0.4,0.5c-0.1,0.1-0.2,0.2-0.3,0.2
				c-0.1,0-0.2-0.1-0.2-0.3s-0.1-0.4-0.1-0.6c0-0.3,0.2-0.7,0.7-1.2c0.4-0.5,1-0.9,1.6-1.3s1.2-0.8,1.8-1c0.6-0.2,1.3-0.4,2.1-0.4
				c1.1,0,1.9,0.3,2.5,0.8c0.6,0.6,0.9,1.4,0.9,2.5C475.5,53.5,475.3,54.7,474.7,55.7z M474,50.7c-0.5-0.3-1.1-0.5-1.9-0.5
				c-0.5,0-1.1,0.1-1.7,0.2c0,0.2,0,0.6,0,1.3c0,0.7,0,1.3,0,2l0,2.6c0,0.6,0,1.3,0,2.2c0.2,0,0.8-0.4,1.6-1.1
				c0.8-0.7,1.4-1.5,2-2.3c0.5-0.8,0.8-1.7,0.8-2.7C474.7,51.6,474.5,51,474,50.7z"/>
		</g>
	</g>
</g>
</svg>
